<svg id="Ebene_1" data-name="Ebene 1" xmlns="http://www.w3.org/2000/svg" viewBox="0 0 288 288"><defs><style>.cls-1{fill:#3fa9f5;}.cls-2{fill:#0071bc;}.cls-3{fill:#f2f2f2;}</style></defs><title>icon-backendsite</title><rect class="cls-1" width="288" height="288"/><circle class="cls-2" cx="143.5" cy="144.5" r="107.5"/><path class="cls-3" d="M118.06,191.48q.66-2.89,2-7.68l11.81-43.1c.12-.5.25-1,.34-1.5a7.72,7.72,0,0,0,.12-1.4q0-3.84-2.43-4.78T121,131.8v-5.06q5.39-.37,15.68-1.54t14.55-2l8.18-1.59-14.89,54.62q-1.87,7-2.53,9.74a50.58,50.58,0,0,0-1.69,9c0,1.37.31,2.26.94,2.67a3.74,3.74,0,0,0,2.06.61q2.89,0,7.23-5a72.71,72.71,0,0,0,7.6-10.4l4.22,2.72Q153,199.35,148,204.13,139.83,212,130.56,212a15.06,15.06,0,0,1-9.44-3.23c-2.77-2.16-4.18-5.45-4.18-9.89A38.43,38.43,0,0,1,118.06,191.48Zm45.13-109a12.38,12.38,0,0,1,3.75,9.09,12.54,12.54,0,0,1-3.75,9.14,12.83,12.83,0,0,1-18.21,0,12.48,12.48,0,0,1-3.81-9.14A12.32,12.32,0,0,1,145,82.52a13,13,0,0,1,18.21,0Z"/></svg>