<svg id="Ebene_1" data-name="Ebene 1" xmlns="http://www.w3.org/2000/svg" viewBox="0 0 288 288"><defs><style>.cls-1{fill:#3fa9f5;}.cls-2{fill:#0071bc;}.cls-3{fill:#fff;}</style></defs><title>icon-help</title><rect class="cls-1" width="288" height="288"/><circle class="cls-2" cx="143.5" cy="144.5" r="107.5"/><path class="cls-3" d="M114.08,86.75q9-8.75,27.39-8.75t28.67,9a29.1,29.1,0,0,1,10.31,23,30.84,30.84,0,0,1-2.09,11.69q-3.81,9.42-14.36,16.45-4.19,2.67-5.7,3.66c-1,.67-3.06,1.95-6.14,3.86a17.81,17.81,0,0,0-6.56,6.46q-1.95,3.62-2.52,14.93h-5.8l-.19-8.27q0-8.37,7.18-21.4a56.22,56.22,0,0,0,7.18-27.57q0-11.79-4.09-18.26T134.24,85q-5.9,0-8.41,2.52a7.54,7.54,0,0,0-2.52,5.37,4.43,4.43,0,0,0,.38,2,11.31,11.31,0,0,0,1.42,2l1.33,1.62a19.66,19.66,0,0,1,3.09,4.85,14.35,14.35,0,0,1,.91,5.51,11.05,11.05,0,0,1-3.62,8.66,12.53,12.53,0,0,1-8.65,3.23,12.67,12.67,0,0,1-9.22-3.85q-3.9-3.85-3.9-11.17Q105.05,95.5,114.08,86.75Zm14.69,100a16.54,16.54,0,1,1-4.8,11.65A15.87,15.87,0,0,1,128.77,186.73Z"/></svg>