<svg id="Ebene_1" data-name="Ebene 1" xmlns="http://www.w3.org/2000/svg" viewBox="0 0 288 288"><defs><style>.cls-1{fill:#3fa9f5;}.cls-2{fill:#0071bc;}.cls-3{fill:#fff;}</style></defs><title>icon-stop</title><rect class="cls-1" width="288" height="288"/><polygon class="cls-2" points="188.36 37.81 99.64 37.81 36.9 100.54 36.9 189.26 99.64 252 188.36 252 251.1 189.26 251.1 100.54 188.36 37.81"/><path class="cls-3" d="M131.65,78.49a16.91,16.91,0,0,1,11.86-4.64,17.13,17.13,0,0,1,11.77,4.59q5.13,4.59,5.13,15.14a47.12,47.12,0,0,1-1.62,10q-1.6,6.69-5.81,21.92a137.1,137.1,0,0,0-3.46,15.29q-.93,6.1-3,24.56h-5.76q-2.84-23.25-3.81-28.71a149.74,149.74,0,0,0-3.91-15.34q-3.7-12.59-4.78-16.79a44.45,44.45,0,0,1-1.66-10.26Q126.62,83.13,131.65,78.49ZM131.55,186a17,17,0,1,1-4.93,12A16.27,16.27,0,0,1,131.55,186Z"/></svg>